<svg width="60" height="54" viewBox="0 0 60 54" fill="none" xmlns="http://www.w3.org/2000/svg">
<path d="M0.46875 40.582V44.625C0.46875 45.6328 1.27734 46.4414 2.28516 46.4414H57.7031C58.7109 46.4414 59.5312 45.6328 59.5312 44.625V40.582H0.46875Z" fill="#D3D9D9"/>
<path d="M53.3438 46.4414H57.7148C58.7109 46.4414 59.5195 45.6328 59.5195 44.6367V40.582H55.1602V44.6367C55.1602 45.6328 54.3516 46.4414 53.3438 46.4414Z" fill="#A8B2B4"/>
<path d="M6.65625 46.4414H2.27344C1.27734 46.4414 0.46875 45.6328 0.46875 44.6367V40.582H4.82812V44.6367C4.82812 45.6328 5.63672 46.4414 6.65625 46.4414Z" fill="#EDEDED"/>
<path d="M59.5312 2.83594V40.582H0.46875V2.83594C0.46875 1.83984 1.27734 1.01953 2.27344 1.01953H57.6914C58.6992 1.01953 59.5312 1.83984 59.5312 2.83594Z" fill="#D3F0FD"/>
<path d="M57.7031 0.550781H2.28516C1.03125 0.550781 0 1.57031 0 2.83594V44.625C0 45.8906 1.03125 46.9102 2.28516 46.9102H23.4375L20.9062 52.5117H19.3711C19.1133 52.5117 18.9023 52.7227 18.9023 52.9805C18.9023 53.2383 19.1133 53.4492 19.3711 53.4492H40.6523C40.9102 53.4492 41.1211 53.2383 41.1211 52.9805C41.1211 52.7227 40.9102 52.5117 40.6523 52.5117H39.1172L36.5625 46.9102H57.7031C58.9688 46.9102 60 45.8789 60 44.625V2.83594C60 1.57031 58.9688 0.550781 57.7031 0.550781ZM38.0625 52.5117H21.9258L24.457 46.9102H35.5195L38.0625 52.5117ZM59.0625 44.625C59.0625 45.3633 58.4531 45.9727 57.7031 45.9727H2.28516C1.54688 45.9727 0.9375 45.3633 0.9375 44.625V41.0508H59.0625V44.625ZM59.0625 40.1133H0.9375V2.83594C0.9375 2.08594 1.53516 1.48828 2.27344 1.48828H57.6914C58.4414 1.48828 59.0508 2.09766 59.0508 2.83594V40.1133H59.0625Z" fill="#333333"/>
<path d="M27.9609 43.5117C27.9609 43.9805 27.5859 44.3438 27.1289 44.3438C26.6719 44.3438 26.2969 43.9688 26.2969 43.5117C26.2969 43.0547 26.6719 42.6797 27.1289 42.6797C27.5859 42.6797 27.9609 43.0547 27.9609 43.5117Z" fill="#7C8B8E"/>
<path d="M30.832 43.5117C30.832 43.9805 30.457 44.3438 30 44.3438C29.543 44.3438 29.168 43.9688 29.168 43.5117C29.168 43.0547 29.543 42.6797 30 42.6797C30.457 42.6797 30.832 43.0547 30.832 43.5117Z" fill="#7C8B8E"/>
<path d="M33.7148 43.5117C33.7148 43.9805 33.3398 44.3438 32.8828 44.3438C32.4258 44.3438 32.0508 43.9688 32.0508 43.5117C32.0508 43.0547 32.4258 42.6797 32.8828 42.6797C33.3398 42.6797 33.7148 43.0547 33.7148 43.5117Z" fill="#7C8B8E"/>
<path d="M44.7538 14.332C42.4687 16.6172 38.7656 16.6172 36.4687 14.332C34.1835 12.0468 34.1835 8.33199 36.4687 6.04684C38.0859 4.42965 40.4062 3.9609 42.4335 4.62887L38.0976 8.96481L38.871 11.9297L41.8359 12.7031L46.1718 8.36715C46.8398 10.3828 46.371 12.7148 44.7538 14.332Z" fill="#D3D8D9"/>
<path d="M42.4453 4.62886L41.6718 5.4023C40.1718 5.4023 38.6835 5.97652 37.5468 7.11324C35.4374 9.22261 35.2734 12.539 37.0546 14.8242C36.8554 14.6718 36.6679 14.5078 36.4804 14.3203C34.1953 12.0351 34.1953 8.33199 36.4804 6.03511C38.0859 4.42964 40.4179 3.96089 42.4453 4.62886Z" fill="#EDEDED"/>
<path d="M44.7538 14.332C42.4687 16.6171 38.7656 16.6171 36.4687 14.332C36.2929 14.1562 36.1171 13.9687 35.9765 13.7695C38.2734 15.539 41.5781 15.3749 43.6874 13.2656C44.8242 12.1288 45.3984 10.6288 45.3984 9.14056L46.1718 8.36713C46.8398 10.3828 46.371 12.7148 44.7538 14.332Z" fill="#A8B1B3"/>
<path d="M15.2461 27.2695C17.5312 24.9843 21.2343 24.9843 23.5312 27.2695C25.8164 29.5546 25.8164 33.2695 23.5312 35.5546C21.914 37.1718 19.5937 37.6406 17.5664 36.9726L21.9023 32.6367L21.1289 29.6718L18.164 28.8984L13.8281 33.2343C13.1601 31.207 13.6289 28.8867 15.2461 27.2695Z" fill="#D3D8D9"/>
<path d="M17.5664 36.9726L18.3398 36.1992C19.8398 36.1992 21.3281 35.6249 22.4648 34.4882C24.5742 32.3788 24.7383 29.0624 22.957 26.7773C23.1562 26.9296 23.3438 27.0937 23.5313 27.2812C25.8164 29.5663 25.8164 33.2695 23.5313 35.5663C21.9141 37.1718 19.5938 37.6406 17.5664 36.9726Z" fill="#A8B1B3"/>
<path d="M15.2461 27.2695C17.5312 24.9843 21.2343 24.9843 23.5312 27.2695C23.707 27.4453 23.8828 27.6328 24.0234 27.832C21.7265 26.0624 18.4218 26.2265 16.3125 28.3359C15.1758 29.4726 14.6015 30.9726 14.6015 32.4609L13.8281 33.2343C13.1601 31.207 13.6406 28.8867 15.2461 27.2695Z" fill="#EDEDED"/>
<path d="M31.9101 22.6992C29.6484 24.9609 27.2695 27.1288 24.8085 29.1679C24.5273 28.4765 24.0937 27.832 23.5429 27.2695C22.9804 26.707 22.3359 26.2851 21.6445 26.0038C23.6953 23.5312 25.8515 21.164 28.1132 18.9023C30.3749 16.6406 32.7421 14.4843 35.2148 12.4335C35.5078 13.1249 35.9296 13.7695 36.4921 14.332C37.0546 14.8945 37.6992 15.3163 38.3906 15.5976C36.3281 18.0703 34.1718 20.4374 31.9101 22.6992Z" fill="#A8B1B3"/>
<path d="M38.3788 15.5976C36.3281 18.0703 34.1718 20.4374 31.9101 22.6992C29.6484 24.9609 27.2812 27.1288 24.8085 29.1679C24.6328 28.746 24.4101 28.3359 24.1288 27.9609C26.496 25.9921 28.7695 23.9062 30.9374 21.7265C33.1054 19.5585 35.1913 17.2851 37.1718 14.9179C37.5468 15.1992 37.957 15.4218 38.3788 15.5976Z" fill="#7C8B8D"/>
<path d="M35.2031 12.4335C35.3788 12.8554 35.6015 13.2538 35.8828 13.6406C33.5156 15.621 31.2421 17.6953 29.0742 19.8749C26.9062 22.0546 24.8203 24.3281 22.8398 26.6835C22.4648 26.4023 22.0546 26.1796 21.6328 26.0038C23.6835 23.5312 25.8398 21.164 28.1015 18.9023C30.3632 16.6288 32.7304 14.4726 35.2031 12.4335Z" fill="#D3D8D9"/>
<path d="M21.6505 10.249L19.4298 12.4697L32.3316 25.3715L34.5524 23.1508L21.6505 10.249Z" fill="#D3D8D9"/>
<path d="M21.6587 10.245L19.4379 12.4658L20.6974 13.7253L22.9182 11.5045L21.6587 10.245Z" fill="#EDEDED"/>
<path d="M33.2935 21.8857L31.0728 24.1064L32.3323 25.366L34.5531 23.1452L33.2935 21.8857Z" fill="#A8B1B3"/>
<path d="M21.6563 10.2422L19.4297 12.4688L18.2461 11.6367L16.3242 10.3008L14.7305 7.76953L16.957 5.54297L19.4883 7.13672L20.8242 9.05859L21.6563 10.2422Z" fill="#D3D8D9"/>
<path d="M18.1406 6.29297L15.4805 8.95312L14.7305 7.76953L16.957 5.54297L18.1406 6.29297Z" fill="#EDEDED"/>
<path d="M21.6563 10.2422L19.4297 12.4687L18.2461 11.6367L20.8242 9.05859L21.6563 10.2422Z" fill="#A8B1B3"/>
<path d="M31.4531 27.6211L39.9258 36.0938C41.3438 37.5117 43.6523 37.6758 45.1641 36.3633C46.0312 35.6016 46.4648 34.5586 46.4648 33.5039C46.4648 32.5313 46.0898 31.5586 45.3516 30.832L36.7969 22.2773C36.4219 21.9023 35.8008 21.9023 35.4258 22.2773L31.4531 26.25C31.0781 26.625 31.0781 27.2344 31.4531 27.6211Z" fill="#FB8A8A"/>
<path d="M44.8711 36.5742C44.9648 36.5039 45.0703 36.4219 45.1641 36.3516C46.0312 35.5898 46.4648 34.5469 46.4648 33.4922C46.4648 32.5195 46.0898 31.5469 45.3516 30.8203L36.7969 22.2656C36.4219 21.8906 35.8008 21.8906 35.4258 22.2656L34.5352 23.1562C34.9102 22.7812 35.5312 22.7812 35.9062 23.1562L44.4609 31.7109C45.1992 32.4492 45.5625 33.4219 45.5742 34.3828C45.5742 35.1562 45.3398 35.9297 44.8711 36.5742Z" fill="#FCB1B1"/>
<path d="M31.4531 27.6211L39.9258 36.0938C41.3438 37.5117 43.6523 37.6758 45.1641 36.3633C45.3984 36.1641 45.5977 35.9414 45.7617 35.6953C44.25 36.7617 42.1406 36.5273 40.8164 35.2031L32.3438 26.7305C31.9688 26.3555 31.9688 25.7344 32.3438 25.3594L31.4531 26.25C31.0781 26.625 31.0781 27.2344 31.4531 27.6211Z" fill="#F96363"/>
<path d="M37.1367 21.9375C36.5742 21.375 35.6601 21.375 35.0976 21.9375L34.5468 22.4883L33.6445 21.5859C35.332 19.8281 36.9609 18.0117 38.5195 16.1484C40.875 16.9804 43.3945 16.3476 45.082 14.6601C46.7812 12.9609 47.3672 10.4883 46.6172 8.21482C46.5703 8.06247 46.4414 7.94528 46.2773 7.91013C46.125 7.87497 45.9492 7.92185 45.832 8.03903L41.6836 12.1875L39.2461 11.5547L38.6133 9.11716L42.7734 4.957C42.8906 4.83982 42.9375 4.67575 42.9023 4.52341C42.8672 4.35935 42.75 4.24216 42.5976 4.18357C40.3125 3.43357 37.8515 4.0195 36.1523 5.71872C34.3828 7.48825 33.8906 10.0547 34.6758 12.2812C32.8125 13.8281 30.9961 15.4687 29.2383 17.1562L22.0312 9.94919L19.875 6.86716C19.8398 6.82028 19.7929 6.77341 19.7343 6.73825L17.2031 5.1445C17.0156 5.02732 16.7812 5.05075 16.6172 5.21482L14.3906 7.44138C14.2383 7.59372 14.2031 7.83982 14.3203 8.02732L15.914 10.5586C15.9492 10.6054 15.9843 10.6523 16.0429 10.6875L19.1133 12.832L26.3203 20.039C24.6328 21.7968 23.0039 23.6015 21.457 25.4531C19.1015 24.5976 16.5468 25.2773 14.8945 26.9414C13.1953 28.6406 12.6093 31.1133 13.3593 33.3867C13.4062 33.539 13.5351 33.6562 13.6992 33.6914C13.8515 33.7265 14.0273 33.6797 14.1445 33.5625L18.2929 29.414L20.7304 30.0468L21.3633 32.4843L17.2265 36.6445C17.1093 36.7617 17.0625 36.9258 17.0976 37.0898C17.1328 37.2539 17.25 37.3711 17.4023 37.4297C18.0586 37.6406 18.7265 37.7578 19.3945 37.7578C21.0351 37.7578 22.6406 37.1133 23.8476 35.9062C25.6172 34.1367 26.1093 31.5703 25.3359 29.3437C27.1875 27.7968 28.9922 26.1679 30.75 24.4804L31.6523 25.3828L31.1015 25.9336C30.539 26.4961 30.539 27.4101 31.1015 27.9726L39.5742 36.4453C41.1914 38.0625 43.7695 38.1914 45.457 36.7265C47.3203 35.0976 47.4258 32.25 45.6797 30.5039L37.1367 21.9375ZM36.8086 6.37497C37.8398 5.34372 39.1992 4.79294 40.6054 4.79294C40.9101 4.79294 41.2265 4.81638 41.5312 4.87497L37.7812 8.62497C37.664 8.74216 37.6172 8.91794 37.664 9.07029L38.4375 12.0351C38.4844 12.1992 38.6133 12.3281 38.7773 12.375L41.7304 13.1484C41.8945 13.1836 42.0586 13.1484 42.1758 13.0312L45.9258 9.28122C46.2304 10.9922 45.6797 12.75 44.4258 14.0039C42.3281 16.1015 38.9062 16.1015 36.8086 14.0039C34.7109 11.9062 34.7109 8.48435 36.8086 6.37497ZM35.039 13.1718C35.332 13.7226 35.6953 14.2148 36.1406 14.6601C36.5859 15.1054 37.0781 15.4687 37.6172 15.7617C36.1406 17.5195 34.582 19.2422 32.9765 20.9062L29.8711 17.8008C31.5586 16.207 33.2812 14.6484 35.039 13.1718ZM16.6758 9.97263L15.3281 7.83982L17.0273 6.1406L19.1601 7.47654L21.0468 10.1836L19.3828 11.8476L16.6758 9.97263ZM23.2031 35.2148C21.9492 36.4687 20.1914 37.0195 18.4804 36.7148L22.2304 32.9648C22.3476 32.8476 22.3945 32.6718 22.3476 32.5195L21.5742 29.5547C21.5273 29.3906 21.3984 29.2617 21.2343 29.2148L18.2812 28.4414C18.1172 28.3945 17.9531 28.4414 17.8359 28.5586L14.0859 32.3086C13.7812 30.5976 14.332 28.8398 15.5859 27.5859C17.6601 25.5117 21.0586 25.4414 23.2031 27.5859C25.3008 29.707 25.3008 33.1172 23.2031 35.2148ZM24.9609 28.4297C24.6679 27.8789 24.3047 27.3867 23.8593 26.9414C23.414 26.4961 22.9218 26.1328 22.3828 25.8398C23.8593 24.082 25.4062 22.3711 27.0117 20.707L30.1054 23.8008C28.4414 25.3945 26.7187 26.9531 24.9609 28.4297ZM20.0976 12.4687L21.6562 10.9101L33.8906 23.1445L32.332 24.7031L20.0976 12.4687ZM44.8593 36C43.5468 37.1367 41.5312 37.0312 40.2539 35.7539L31.7812 27.2812C31.6875 27.1875 31.6289 27.0586 31.6289 26.9297C31.6289 26.8008 31.6758 26.6718 31.7812 26.5781L35.7539 22.6054C35.8476 22.5117 35.9765 22.4531 36.1054 22.4531C36.2344 22.4531 36.3633 22.5 36.457 22.6054L45.0117 31.1601C46.3945 32.5195 46.3008 34.7343 44.8593 36Z" fill="#333333"/>
<path d="M43.5117 33.1992L35.9531 25.6406C35.7656 25.4531 35.7656 25.1602 35.9531 24.9727C36.1406 24.7852 36.4336 24.7852 36.6211 24.9727L44.1797 32.5313C44.3672 32.7188 44.3672 33.0117 44.1797 33.1992C43.9922 33.3867 43.6992 33.3867 43.5117 33.1992Z" fill="#333333"/>
<path d="M41.6602 34.9102L34.1719 27.4219C33.9844 27.2344 33.9844 26.9414 34.1719 26.7539C34.3594 26.5664 34.6523 26.5664 34.8398 26.7539L42.3281 34.2422C42.5156 34.4297 42.5156 34.7227 42.3281 34.9102C42.1406 35.0977 41.8359 35.0977 41.6602 34.9102Z" fill="#333333"/>
</svg>
