<svg width="32" height="32" viewBox="0 0 32 32" fill="none" xmlns="http://www.w3.org/2000/svg">
<g clip-path="url(#clip0_71_819)">
<path d="M30.9999 30.36H22.9999C22.8009 30.36 22.6399 30.199 22.6399 30V27.36H1.99989V26.64H22.6399V25.36H4.99989C4.24989 25.36 3.63989 24.75 3.63989 24V13.926C1.82089 12.585 0.639893 10.427 0.639893 8.00001C0.639893 3.94201 3.94189 0.640015 7.99989 0.640015C11.9379 0.640015 15.1629 3.74801 15.3509 7.64001H26.9999C27.7499 7.64001 28.3599 8.25001 28.3599 9.00001V15.64H30.9999C31.1989 15.64 31.3599 15.801 31.3599 16V30C31.3599 30.199 31.1989 30.36 30.9999 30.36ZM23.3599 29.64H30.6389V27.36H23.3599V29.64ZM23.3599 26.64H30.6389V16.36H23.3599V26.64ZM4.35989 14.396V24C4.35989 24.353 4.64689 24.64 4.99989 24.64H22.6399V16C22.6399 15.801 22.8009 15.64 22.9999 15.64H27.6399V9.00001C27.6399 8.64701 27.3529 8.36001 26.9999 8.36001H15.3509C15.1629 12.252 11.9369 15.36 7.99989 15.36C6.67689 15.36 5.43389 15.009 4.35989 14.396ZM7.99989 1.36001C4.33889 1.36001 1.35989 4.33901 1.35989 8.00001C1.35989 11.661 4.33889 14.64 7.99989 14.64C11.6609 14.64 14.6399 11.661 14.6399 8.00001C14.6399 4.33901 11.6609 1.36001 7.99989 1.36001ZM8.35989 12H7.63989V8.36001H3.99989V7.64001H7.63989V4.00001H8.35989V7.64001H11.9999V8.36001H8.35989V12Z" fill="white"/>
</g>
<defs>
<clipPath id="clip0_71_819">
<rect width="32" height="32" fill="white"/>
</clipPath>
</defs>
</svg>
